<svg width="11293" height="7795" xmlns="http://www.w3.org/2000/svg">
 <style type="text/css">.st0{font-family:'MyriadPro-Regular';}
	.st1{font-size:12px;}</style>

 <g>
  <title>background</title>
  <rect fill="white" id="canvas_background" height="7797" width="11295" y="-1" x="-1"/>
 </g>
 <g>
  <title>Layer 1</title>
  <text x="2" y="2" id="svg_1" class="st0 st1" transform="matrix(1,0,0,1,839,4239) "/>
  <g stroke="null" transform="rotate(-0.11607346683740616 5671.912597656328,3718.4833984371903) " id="svg_2">
   <path stroke="null" id="svg_3" d="m641.530122,4058.223127c-25.974194,40.911043 -84.133802,95.162644 -157.821461,95.162644c-165.72665,0 -273.57602,-337.960793 -273.57602,-842.233872c0,-507.83056 115.75456,-876.029951 295.315291,-876.029951c59.006593,0 111.237309,44.468525 138.623143,85.379569l-22.586256,232.125703c-23.715568,-40.911043 -61.265218,-78.264605 -115.75456,-78.264605c-125.918375,0 -194.241798,279.26234 -194.241798,624.338097c0,381.539948 81.875176,617.223133 190.853859,617.223133c56.747967,0 94.297617,-44.468525 122.530436,-81.822087l16.657363,224.121368z"/>
   <path stroke="null" id="svg_4" d="m1234.41933,4573.168651l0,-226.78948l89.215709,-281.041081c214.569428,-663.470399 311.407998,-1016.550491 312.537311,-1427.439666c0,-277.483599 -41.219916,-533.622305 -166.573635,-533.622305c-76.228612,0 -139.470128,126.290612 -178.149091,231.236332l-36.138009,-260.585559c58.159608,-159.197321 140.881769,-277.483599 237.72034,-277.483599c180.972373,0 257.200985,402.88484 257.200985,793.318494c0,504.273078 -112.366621,911.604771 -289.386399,1465.682598l-67.19411,201.887105l0,8.004335l377.190467,0l0,306.832825l-536.423569,0z"/>
   <path stroke="null" id="svg_5" d="m2455.206441,3178.635694c0,928.502811 -105.873073,1440.780224 -291.927353,1440.780224c-164.032681,0 -275.269989,-499.826226 -277.810943,-1402.537292c0,-915.162253 121.401124,-1419.435332 291.927353,-1419.435332c177.019778,0 277.810943,512.277413 277.810943,1381.1924zm-455.960034,42.689784c0,709.717666 67.19411,1112.602506 170.526229,1112.602506c116.319216,0 171.93787,-441.127772 171.93787,-1138.394251c0,-671.474734 -53.077701,-1112.602506 -170.526229,-1112.602506c-99.661853,0 -171.93787,394.880506 -171.93787,1138.394251z"/>
   <path stroke="null" id="svg_6" d="m2559.667873,4573.168651l0,-226.78948l89.215709,-281.041081c214.569428,-663.470399 311.407998,-1016.550491 312.537311,-1427.439666c0,-277.483599 -41.219916,-533.622305 -166.573635,-533.622305c-76.228612,0 -139.470128,126.290612 -178.149091,231.236332l-36.138009,-260.585559c58.159608,-159.197321 140.881769,-277.483599 237.72034,-277.483599c180.972373,0 257.200985,402.88484 257.200985,793.318494c0,504.273078 -112.366621,911.604771 -289.386399,1465.682598l-67.19411,201.887105l0,8.004335l377.190467,0l0,306.832825l-536.423569,0z"/>
   <g stroke="null" id="svg_7">
    <path stroke="null" id="svg_8" d="m3469.046987,2187.876947l-2.540954,0l-145.963676,256.138706l-22.021599,-281.041081l183.513326,-319.284013l96.838571,0l0,2729.478091l-109.825668,0l0,-2385.291704z"/>
   </g>
   <path stroke="null" id="svg_9" d="m468.745267,4619.415918c-223.60393,0 -405.423287,-594.0995 -405.423287,-1324.272687c0,-730.173188 181.819357,-1324.272687 405.423287,-1324.272687c223.60393,0 405.423287,594.0995 405.423287,1324.272687c0,730.173188 -181.819357,1324.272687 -405.423287,1324.272687zm0,-2435.096452c-187.748249,0 -340.205474,498.047485 -340.205474,1110.823765c0,612.77628 152.739553,1110.823765 340.205474,1110.823765c187.748249,0 340.205474,-498.047485 340.205474,-1110.823765c0,-612.77628 -152.739553,-1110.823765 -340.205474,-1110.823765z"/>
   <g stroke="null" id="svg_10">
    <path stroke="null" id="svg_11" d="m4993.901564,3432.995659c-6.775877,-401.106099 -14.963394,-884.034285 -13.551753,-1242.4506l-3.952595,0c-31.056101,337.071423 -69.170408,695.487738 -115.189903,1093.036355l-161.209399,1396.311698l-89.498038,0l-147.657646,-1370.519954c-43.478542,-405.552952 -79.898879,-777.309824 -105.590745,-1118.8281l-2.823282,0c-2.823282,358.416315 -9.599159,841.344501 -17.504348,1272.689198l-24.280225,1233.556895l-112.366621,0l63.806172,-2877.113595l150.480928,0l155.845163,1391.864846c37.831978,353.969462 69.170408,670.585363 92.038991,969.413854l3.952595,0c23.150912,-289.934786 55.618654,-606.550687 96.273914,-969.413854l162.62104,-1391.864846l150.480928,0l57.030295,2877.113595l-115.189903,0l-23.715568,-1263.795493z"/>
    <path stroke="null" id="svg_12" d="m5680.806061,4695.901781l-9.599159,-260.585559l-3.952595,0c-36.702665,161.865433 -107.002386,307.722196 -200.453018,307.722196c-132.694251,0 -200.453018,-294.381638 -200.453018,-593.210129c0,-499.826226 140.881769,-772.862972 394.412487,-768.416119l0,-42.689784c0,-170.759138 -14.963394,-478.481334 -149.069287,-478.481334c-60.98289,0 -124.789062,59.587824 -170.808558,153.861098l-27.103507,-247.245001c54.207013,-111.171314 132.694251,-183.210325 215.416412,-183.210325c200.453018,0 249.295796,431.344697 249.295796,844.901983l0,772.862972c0,179.652843 2.823282,353.969462 10.728471,495.379373l-108.414027,0l0,-0.889371zm-17.504348,-1053.904053c-130.153298,-8.893705 -277.810943,64.034677 -277.810943,465.140776c0,243.687519 51.383731,358.416315 112.366621,358.416315c85.263115,0 139.470128,-170.759138 158.668445,-345.965128c3.952595,-38.242932 6.775877,-80.932716 6.775877,-119.175648l0,-358.416315z"/>
    <path stroke="null" id="svg_13" d="m5970.757116,3274.687709c0,-243.687519 -1.411641,-452.689589 -5.364236,-644.793619l104.461432,0l3.952595,405.552952l5.364236,0c29.926789,-277.483599 101.63815,-452.689589 181.537029,-452.689589c13.551753,0 23.150912,4.446853 33.879383,12.451187l0,353.969462c-12.140112,-8.893705 -24.280225,-12.451187 -40.65526,-12.451187c-84.133802,0 -143.705051,200.997735 -159.797758,482.038816c-2.823282,51.583489 -5.364236,111.171314 -5.364236,175.20599l0,1101.93006l-118.013185,0l0,-1421.214073z"/>
    <path stroke="null" id="svg_14" d="m6552.070868,2049.135148c1.411641,128.069353 -28.515148,230.346962 -75.946284,230.346962c-42.066901,0 -71.711361,-102.277608 -71.711361,-230.346962c0,-132.516206 31.056101,-234.793814 74.534643,-234.793814c44.890183,0 73.123002,102.277608 73.123002,234.793814zm-132.694251,2646.766633l0,-2066.007691l119.142498,0l0,2066.007691l-119.142498,0z"/>
    <path stroke="null" id="svg_15" d="m6736.431179,3189.30814c0,-213.448922 -1.411641,-388.654912 -5.364236,-559.41405l105.590745,0l6.775877,341.518275l2.823282,0c32.467742,-196.550882 108.414027,-388.654912 216.828053,-388.654912c90.909679,0 231.791447,170.759138 231.791447,879.587433l0,1233.556895l-119.142498,0l0,-1190.867111c0,-332.62457 -39.243619,-610.108169 -151.892568,-610.108169c-78.487238,0 -139.470128,175.20599 -159.797758,384.20806c-5.364236,47.136637 -8.187518,111.171314 -8.187518,175.20599l0,1242.4506l-119.142498,0l0,-1507.483012l-0.282328,0z"/>
    <path stroke="null" id="svg_16" d="m7851.909874,4695.901781l-9.599159,-260.585559l-3.952595,0c-36.702665,161.865433 -107.002386,307.722196 -200.453018,307.722196c-132.694251,0 -200.453018,-294.381638 -200.453018,-593.210129c0,-499.826226 140.881769,-772.862972 394.412487,-768.416119l0,-42.689784c0,-170.759138 -14.963394,-478.481334 -149.069287,-478.481334c-60.98289,0 -124.789062,59.587824 -170.808558,153.861098l-27.103507,-247.245001c54.207013,-111.171314 132.694251,-183.210325 215.416412,-183.210325c200.453018,0 249.295796,431.344697 249.295796,844.901983l0,772.862972c0,179.652843 2.823282,353.969462 10.728471,495.379373l-108.414027,0l0,-0.889371zm-17.786676,-1053.904053c-130.153298,-8.893705 -277.810943,64.034677 -277.810943,465.140776c0,243.687519 51.383731,358.416315 112.366621,358.416315c85.263115,0 139.470128,-170.759138 158.668445,-345.965128c3.952595,-38.242932 6.775877,-80.932716 6.775877,-119.175648l0,-358.416315z"/>
    <path stroke="null" id="svg_17" d="m8433.223626,1857.031118c71.711361,-33.796079 157.256804,-59.587824 250.707436,-59.587824c169.396917,0 289.951055,123.622501 370.132263,358.416315c81.31052,234.793814 128.741657,567.418384 128.741657,1033.448531c0,469.587629 -46.019496,853.795688 -131.564939,1118.8281c-85.263115,268.589894 -226.427212,414.446657 -404.011646,414.446657c-84.133802,0 -154.433522,-12.451187 -214.004771,-33.796079l0,-2831.755699zm117.730857,2544.489025c29.926789,16.89804 73.123002,21.344892 119.142498,21.344892c252.119077,0 389.048252,-443.795884 389.048252,-1221.105708c1.411641,-678.589698 -120.554139,-1109.934395 -369.849934,-1109.934395c-60.98289,0 -107.002386,16.89804 -138.340815,38.242932l0,2271.452279z"/>
    <path stroke="null" id="svg_18" d="m9694.665998,4695.901781l-9.599159,-260.585559l-3.952595,0c-36.702665,161.865433 -107.002386,307.722196 -200.453018,307.722196c-132.694251,0 -200.453018,-294.381638 -200.453018,-593.210129c0,-499.826226 140.881769,-772.862972 394.412487,-768.416119l0,-42.689784c0,-170.759138 -14.963394,-478.481334 -149.069287,-478.481334c-60.98289,0 -124.789062,59.587824 -170.808558,153.861098l-27.103507,-247.245001c54.207013,-111.171314 132.694251,-183.210325 215.416412,-183.210325c200.453018,0 249.295796,431.344697 249.295796,844.901983l0,772.862972c0,179.652843 2.823282,353.969462 10.728471,495.379373l-108.414027,0l0,-0.889371zm-17.504348,-1053.904053c-130.153298,-8.893705 -277.810943,64.034677 -277.810943,465.140776c0,243.687519 51.383731,358.416315 112.366621,358.416315c85.263115,0 139.470128,-170.759138 158.668445,-345.965128c3.952595,-38.242932 6.775877,-80.932716 6.775877,-119.175648l0,-358.416315z"/>
    <path stroke="null" id="svg_19" d="m9984.899382,3274.687709c0,-243.687519 -1.411641,-452.689589 -5.364236,-644.793619l104.461432,0l3.952595,405.552952l5.364236,0c29.926789,-277.483599 101.63815,-452.689589 181.537029,-452.689589c13.551753,0 23.150912,4.446853 33.879383,12.451187l0,353.969462c-12.140112,-8.893705 -24.280225,-12.451187 -40.65526,-12.451187c-84.133802,0 -143.705051,200.997735 -159.797758,482.038816c-2.823282,51.583489 -5.364236,111.171314 -5.364236,175.20599l0,1101.93006l-118.013185,0l0,-1421.214073z"/>
    <path stroke="null" id="svg_20" d="m10566.213133,2049.135148c1.411641,128.069353 -28.515148,230.346962 -75.946284,230.346962c-42.066901,0 -71.711361,-102.277608 -71.711361,-230.346962c0,-132.516206 31.056101,-234.793814 74.534643,-234.793814c44.607855,0 73.123002,102.277608 73.123002,234.793814zm-132.976579,2646.766633l0,-2066.007691l119.142498,0l0,2066.007691l-119.142498,0z"/>
    <path stroke="null" id="svg_21" d="m10793.769658,2629.89409l143.705051,1221.105708c14.963394,136.963058 31.056101,298.828491 42.066901,422.450992l2.823282,0c12.140112,-123.622501 25.691866,-281.930451 42.066901,-431.344697l130.153298,-1212.212003l125.918375,0l-178.996075,1472.797562c-85.263115,708.828295 -143.705051,1071.691463 -225.015571,1293.144719c-58.159608,161.865433 -116.601544,225.900109 -146.246005,243.687519l-29.926789,-315.726531c29.926789,-30.238597 69.170408,-89.826421 104.461432,-183.210325c32.467742,-80.932716 73.123002,-225.900109 100.226509,-418.004139c5.364236,-38.242932 9.599159,-68.481529 9.599159,-89.826421c0,-21.344892 -2.823282,-51.583489 -8.187518,-97.830756l-242.519919,-1904.142259l129.870969,0l0,-0.889371z"/>
   </g>
  </g>
 </g>
</svg>